# xmcd CD database file
#
# Track frame offsets:
#	150
#	1482
#	23592
#	63204
#	85717
#	111099
#	145498
#	184128
#	217626
#	230785
#
# Disc length: 3398 seconds
#
# Revision: 1
# Processed by: cddbd v1.5.1PL0 Copyright (c) Steve Scherf et al.
# Submitted via: Feurio! 1.68 - http://www.feurio.com
#
DISCID=7b0d440a
DTITLE=Carl Weathersby - in the house
DYEAR=2004
DGENRE=Blues
TTITLE0=Introduction
TTITLE1=Leap Of Faith
TTITLE2=What's Going On - Love, Lead Us Home
TTITLE3=If That Ain't The Blues
TTITLE4=Keep Your Hands Off My Baby
TTITLE5=Hobo Blues
TTITLE6=Angel Of Mercy
TTITLE7=Can't You See What You're Doing To Me?
TTITLE8=Night Stomp
TTITLE9=Looking Out My Window
EXTD=recorded live, November 6 and 9, 2002 at the Lucerne Blues Festival\r\n2004 
EXTD=CrossCut Records
EXTT0=
EXTT1=
EXTT2=
EXTT3=
EXTT4=
EXTT5=
EXTT6=
EXTT7=
EXTT8=
EXTT9=
PLAYORDER=
